<svg aria-hidden="true" style="position: absolute; width: 0; height: 0; overflow: hidden;" version="1.1" xmlns="http://www.w3.org/2000/svg" xmlns:xlink="http://www.w3.org/1999/xlink">
<defs>
<symbol id="icon-telegram_logo" viewBox="0 0 32 32">
<path fill="#007ab9" style="fill: var(--color1, #007ab9)" d="M16 32c8.837 0 16-7.163 16-16s-7.163-16-16-16-16 7.163-16 16 7.163 16 16 16z"></path>
<path fill="#fff" style="fill: var(--color2, #fff)" d="M5.959 16.783c1.871-1.030 3.959-1.89 5.909-2.755 3.356-1.415 6.725-2.807 10.129-4.101 0.663-0.221 1.852-0.437 1.969 0.545-0.063 1.389-0.327 2.77-0.507 4.151-0.457 3.037-0.987 6.063-1.502 9.091-0.178 1.008-1.441 1.53-2.249 0.885-1.942-1.312-3.899-2.611-5.817-3.953-0.628-0.638-0.046-1.555 0.515-2.010 1.6-1.577 3.296-2.916 4.812-4.573 0.409-0.988-0.8-0.156-1.198 0.099-2.19 1.509-4.327 3.11-6.635 4.437-1.18 0.649-2.554 0.094-3.733-0.268-1.057-0.438-2.605-0.879-1.693-1.546z"></path>
</symbol>
<symbol id="icon-linkedin" viewBox="0 0 32 32">
<path fill="#007ab9" style="fill: var(--color3, #007ab9)" d="M32 16c0 8.837-7.163 16-16 16s-16-7.163-16-16c0-8.837 7.163-16 16-16s16 7.163 16 16z"></path>
<path fill="#f1f2f2" style="fill: var(--color4, #f1f2f2)" d="M25.56 17.287v6.596h-3.824v-6.154c0-1.545-0.552-2.601-1.937-2.601-1.057 0-1.684 0.71-1.962 1.398-0.101 0.246-0.127 0.587-0.127 0.932v6.424h-3.825s0.051-10.423 0-11.502h3.825v1.63c-0.008 0.013-0.019 0.025-0.025 0.038h0.025v-0.038c0.508-0.782 1.415-1.9 3.447-1.9 2.516 0 4.403 1.644 4.403 5.176zM9.884 6.836c-1.308 0-2.164 0.859-2.164 1.987 0 1.104 0.831 1.988 2.114 1.988h0.025c1.334 0 2.163-0.884 2.163-1.988-0.025-1.128-0.829-1.987-2.138-1.987zM7.948 23.884h3.823v-11.503h-3.823v11.503z"></path>
</symbol>
</defs>
</svg>
